<svg width="25" height="25" viewBox="0 0 25 25" fill="none" xmlns="http://www.w3.org/2000/svg">
  <circle cx="12.5" cy="12.5" r="12.5" fill="#3B82F6" />
  <path
    d="M19.7071 13.2929L16.1464 9.73223C15.7559 9.34171 15.1228 9.34171 14.7322 9.73223L13.3536 11.1109L11.1464 8.90376C10.7559 8.51324 10.1228 8.51324 9.73223 8.90376L5.29289 13.3431C4.90237 13.7336 4.90237 14.3668 5.29289 14.7573C5.68342 15.1478 6.31658 15.1478 6.70711 14.7573L10.4393 11.0251L12.6464 13.2322C13.037 13.6227 13.6701 13.6227 14.0607 13.2322L15.4393 11.8536L18.2929 14.7071C18.6834 15.0976 19.3166 15.0976 19.7071 14.7071C20.0976 14.3166 20.0976 13.6834 19.7071 13.2929Z"
    fill="white"
  />
</svg> 