<svg viewBox="0 0 399.969696969697 61.161852791249885" preserveAspectRatio="xMidYMid meet" class="css-88gl6m" id="fehfbcfg">
  <defs id="SvgjsDefs10841">
    <linearGradient id="SvgjsLinearGradient10850">
      <stop id="SvgjsStop10851" stop-color="#834f2a" offset="0"/>
      <stop id="SvgjsStop10852" stop-color="#dba173" offset="0.5"/>
      <stop id="SvgjsStop10853" stop-color=" #834F2A" offset="1"/>
    </linearGradient>
    <linearGradient id="SvgjsLinearGradient10854">
      <stop id="SvgjsStop10855" stop-color="#834f2a" offset="0"/>
      <stop id="SvgjsStop10856" stop-color="#dba173" offset="0.5"/>
      <stop id="SvgjsStop10857" stop-color=" #834F2A" offset="1"/>
    </linearGradient>
  </defs>
  <g id="SvgjsG10842" featurekey="symbolContainer" transform="matrix(0.7132859697535574,0,0,0.7132859697535574,0,2)" fill="url(#SvgjsLinearGradient10850)">
    <path xmlns="http://www.w3.org/2000/svg" d="M116.1 78.7H0V0h116.1zM2 76.7h112.1V2H2z"/>
  </g>
  <g id="SvgjsG10843" featurekey="symbolFeature-0" transform="matrix(0.5492579440790682,0,0,0.5492579440790682,14.052528461928695,2.3337613934757577)" fill="url(#SvgjsLinearGradient10854)">
    <g xmlns="http://www.w3.org/2000/svg">
      <path fill="url(#SvgjsLinearGradient10854)" d="M84.848,35.827c-0.645,1.94-1.29,3.881-1.935,5.821c2.049,0.317,4.046,0.792,5.938,1.585   c0.645-1.94,1.29-3.881,1.935-5.821C88.894,36.62,86.898,36.144,84.848,35.827z"/>
      <path fill="url(#SvgjsLinearGradient10854)" d="M76.66,41.014c0.645-1.94,1.29-3.881,1.935-5.821c-2.102-0.159-4.204-0.318-6.253-0.635   c-0.645,1.94-1.29,3.881-1.935,5.821C72.456,40.696,74.558,40.855,76.66,41.014z"/>
      <path fill="url(#SvgjsLinearGradient10854)" d="M70.406,40.379c-2.049-0.317-4.046-0.792-5.938-1.585c-0.645,1.94-1.29,3.881-1.935,5.821   c1.892,0.792,3.888,1.267,5.938,1.585C69.116,44.26,69.761,42.32,70.406,40.379z"/>
      <path fill="url(#SvgjsLinearGradient10854)" d="M74.725,46.835c2.102,0.159,4.204,0.318,6.253,0.635c0.645-1.94,1.29-3.881,1.935-5.821   c-2.049-0.317-4.151-0.476-6.253-0.635C76.015,42.954,75.37,44.894,74.725,46.835z"/>
      <path fill="url(#SvgjsLinearGradient10854)" d="M79.043,53.291c2.049,0.317,4.046,0.793,5.938,1.585c0.645-1.94,1.29-3.881,1.935-5.821   c-1.892-0.792-3.888-1.267-5.938-1.585C80.333,49.41,79.688,51.35,79.043,53.291z"/>
      <path fill="url(#SvgjsLinearGradient10854)" d="M68.471,46.2c-0.645,1.94-1.29,3.881-1.935,5.821c2.049,0.317,4.151,0.476,6.253,0.635   c0.645-1.94,1.29-3.881,1.935-5.821C72.623,46.676,70.521,46.517,68.471,46.2z"/>
      <path fill="url(#SvgjsLinearGradient10854)" d="M98.178,34.92c-1.895-1.843-4.123-3.173-6.812-4.067c-3.426-1.139-7.185-1.423-10.819-1.697   c-3.609-0.273-7.34-0.555-10.716-1.676c-2.522-0.838-4.626-2.07-6.425-3.757l0.644-1.936l-1.643-0.546L50,58.563L37.594,21.24   l-1.643,0.546l0.644,1.936c-1.799,1.688-3.904,2.919-6.425,3.757c-3.375,1.122-7.107,1.404-10.716,1.676   c-3.635,0.274-7.394,0.558-10.82,1.697c-2.689,0.894-4.917,2.224-6.812,4.067l-0.097,0.095l9.826,29.562l0.247-0.241   c1.847-1.797,4.021-3.094,6.647-3.967c3.375-1.122,7.107-1.404,10.715-1.676c3.635-0.274,7.394-0.558,10.819-1.697   c2.514-0.836,4.626-2.054,6.439-3.715l2.668,8.026L43.73,77.426l1.643,0.546L50,64.051l4.627,13.921l1.643-0.546l-5.358-16.119   l2.668-8.026c1.813,1.662,3.925,2.879,6.439,3.715c3.426,1.139,7.184,1.423,10.819,1.697c3.609,0.273,7.34,0.554,10.716,1.676   c2.626,0.873,4.8,2.17,6.647,3.967l0.247,0.241l9.826-29.562L98.178,34.92z M41.267,56.052c-0.622-1.872-1.244-3.743-1.866-5.615   c-1.892,0.792-3.888,1.267-5.938,1.585c0.622,1.87,1.243,3.74,1.865,5.611c-2.047,0.315-4.143,0.474-6.2,0.629   c-0.018,0.001-0.036,0.003-0.054,0.004c-0.622-1.87-1.243-3.74-1.865-5.61c-2.102,0.159-4.204,0.318-6.253,0.635   c0.622,1.872,1.244,3.744,1.867,5.615c-1.541,0.24-3.058,0.569-4.514,1.053c-0.49,0.163-0.964,0.34-1.424,0.532   c-0.622-1.872-1.244-3.744-1.867-5.616c-1.825,0.764-3.55,1.827-5.132,3.323l-1.935-5.821c1.582-1.496,3.307-2.559,5.132-3.323   c-0.645-1.94-1.29-3.881-1.935-5.821c-1.825,0.764-3.55,1.827-5.132,3.323l-1.935-5.821c1.582-1.496,3.307-2.559,5.132-3.323   c-0.622-1.872-1.244-3.743-1.866-5.615c0.459-0.193,0.933-0.371,1.423-0.534c1.452-0.483,2.97-0.809,4.516-1.047   c0.622,1.87,1.243,3.74,1.865,5.611c2.049-0.317,4.151-0.476,6.253-0.635c-0.622-1.87-1.243-3.74-1.865-5.61   c2.073-0.157,4.184-0.318,6.252-0.64c0.622,1.872,1.244,3.744,1.867,5.615c2.049-0.317,4.046-0.792,5.938-1.585   c-0.622-1.872-1.244-3.744-1.867-5.616c1.902-0.795,3.555-1.846,5.015-3.184l1.859,5.592c-1.548,1.435-3.23,2.464-5.007,3.208   c0.645,1.94,1.29,3.881,1.935,5.821c1.777-0.744,3.46-1.773,5.007-3.208l1.935,5.821c-1.548,1.435-3.23,2.464-5.007,3.208   c0.645,1.94,1.29,3.881,1.935,5.821c1.777-0.744,3.46-1.773,5.007-3.208l1.861,5.599C44.82,54.188,43.172,55.252,41.267,56.052z    M93.983,46.556c-1.582-1.496-3.307-2.559-5.132-3.323c-0.645,1.94-1.29,3.881-1.935,5.821c1.825,0.764,3.55,1.827,5.132,3.323   l-1.935,5.821c-1.582-1.496-3.307-2.559-5.132-3.323c-0.622,1.872-1.244,3.744-1.867,5.616c-0.46-0.192-0.934-0.37-1.424-0.532   c-1.456-0.484-2.973-0.813-4.514-1.053c0.622-1.872,1.244-3.744,1.867-5.615c-2.049-0.317-4.151-0.476-6.253-0.635   c-0.622,1.87-1.243,3.74-1.865,5.61c-0.018-0.001-0.036-0.003-0.054-0.004c-2.056-0.155-4.152-0.314-6.2-0.629   c0.622-1.87,1.243-3.74,1.865-5.611c-2.049-0.317-4.046-0.792-5.938-1.585c-0.622,1.872-1.244,3.743-1.866,5.615   c-1.905-0.8-3.552-1.864-5.002-3.223l1.861-5.599c1.548,1.435,3.23,2.464,5.007,3.208c0.645-1.94,1.29-3.881,1.935-5.821   c-1.777-0.744-3.46-1.773-5.007-3.208l1.935-5.821c1.548,1.435,3.23,2.464,5.007,3.208c0.645-1.94,1.29-3.881,1.935-5.821   c-1.777-0.744-3.46-1.773-5.007-3.208l1.859-5.592c1.46,1.338,3.113,2.389,5.015,3.184c-0.622,1.872-1.244,3.744-1.867,5.616   c1.892,0.792,3.888,1.267,5.938,1.585c0.622-1.872,1.244-3.744,1.867-5.615c2.067,0.322,4.179,0.484,6.252,0.64   c-0.622,1.87-1.243,3.74-1.865,5.61c2.102,0.159,4.204,0.318,6.253,0.635c0.622-1.87,1.243-3.74,1.865-5.611   c1.546,0.238,3.064,0.564,4.516,1.047c0.49,0.163,0.964,0.341,1.423,0.534c-0.622,1.872-1.244,3.743-1.866,5.615   c1.825,0.764,3.55,1.827,5.132,3.323L93.983,46.556z"/>
      <path fill="url(#SvgjsLinearGradient10854)" d="M15.152,35.827c-2.049,0.317-4.046,0.792-5.938,1.585c0.645,1.94,1.29,3.881,1.935,5.821   c1.892-0.792,3.888-1.267,5.938-1.585C16.442,39.708,15.797,37.768,15.152,35.827z"/>
      <path fill="url(#SvgjsLinearGradient10854)" d="M29.594,40.379c-0.645-1.94-1.29-3.881-1.935-5.821c-2.049,0.317-4.151,0.476-6.253,0.635   c0.645,1.94,1.29,3.881,1.935,5.821C25.442,40.855,27.544,40.696,29.594,40.379z"/>
      <path fill="url(#SvgjsLinearGradient10854)" d="M31.529,46.2c2.049-0.317,4.046-0.792,5.938-1.585c-0.645-1.94-1.29-3.881-1.935-5.821   c-1.892,0.792-3.888,1.267-5.938,1.585C30.239,42.32,30.884,44.26,31.529,46.2z"/>
      <path fill="url(#SvgjsLinearGradient10854)" d="M17.087,41.648c0.645,1.94,1.29,3.881,1.935,5.821c2.049-0.317,4.151-0.476,6.253-0.635   c-0.645-1.94-1.29-3.881-1.935-5.821C21.238,41.172,19.136,41.331,17.087,41.648z"/>
      <path fill="url(#SvgjsLinearGradient10854)" d="M13.084,49.054c0.645,1.94,1.29,3.881,1.935,5.821c1.892-0.792,3.888-1.267,5.938-1.585   c-0.645-1.94-1.29-3.881-1.935-5.821C16.972,47.787,14.976,48.262,13.084,49.054z"/>
      <path fill="url(#SvgjsLinearGradient10854)" d="M25.275,46.835c0.645,1.94,1.29,3.881,1.935,5.821c2.102-0.159,4.204-0.317,6.253-0.635   c-0.645-1.94-1.29-3.881-1.935-5.821C29.479,46.517,27.377,46.676,25.275,46.835z"/>
    </g>
  </g>
  <g id="SvgjsG10844" featurekey="nameFeature-0" transform="matrix(1.1094620836486369,0,0,1.1094620836486369,100.1153976302546,-11.937812273995052)" fill="#2e2c29">
    <path d="M15.72 12 c6.16 0 9.72 5.08 9.72 9.72 c0 4.72 -3.52 9.72 -9.96 9.72 l-7.44 0 l0 8.56 l-5.44 0 l0 -28 l13.12 0 z M15.32 26.560000000000002 c2.96 0 4.8 -2.36 4.8 -4.8 c0 -2.48 -1.88 -4.8 -4.56 -4.8 l-7.52 0 l0 9.6 l7.28 0 z M30.67 16.92 c-1.76 0 -3.16 -1.36 -3.16 -3.12 c0 -1.68 1.4 -3.04 3.16 -3.04 s3.16 1.36 3.16 3.04 c0 1.76 -1.4 3.12 -3.16 3.12 z M27.95 40 l0 -20.24 l5.32 0 l0 20.24 l-5.32 0 z M49.260000000000005 35.08 l1.28 4.28 c-1.6 0.64 -3.04 0.96 -4.72 0.96 c-4.64 0 -6.76 -2.88 -6.76 -7.24 l0 -8.68 l-3.4 0 l0 -4.64 l3.4 0 l0 -6.56 l5.32 0 l0 6.56 l5.92 0 l0 4.64 l-5.92 0 l0 8.68 c0 1.64 0.8 2.56 2.48 2.56 c0.92 0 1.6 -0.16 2.4 -0.56 z M58.81 34.96 l13.96 0 l0 5.04 l-19.44 0 l0 -28 l5.48 0 l0 22.96 z M83.72 40.56 c-5.6 0 -10 -4.56 -10 -10.68 c0 -6.16 4.4 -10.68 10 -10.68 c2.84 0 5.08 1.16 6.52 3 l0 -2.44 l5.32 0 l0 20.24 l-5.32 0 l0 -2.48 c-1.44 1.84 -3.68 3.04 -6.52 3.04 z M84.64 35.84 c3.2 0 5.76 -2.48 5.76 -6 c0 -3.48 -2.56 -5.92 -5.76 -5.92 c-3.32 0 -5.68 2.44 -5.68 5.92 c0 3.52 2.36 6 5.68 6 z M111.71000000000001 19.2 c5.28 0 7.96 3.56 7.96 8.96 l0 11.84 l-5.28 0 l0 -10.84 c0 -3.08 -1.4 -5.04 -4.32 -5.04 c-2.96 0 -4.88 2.32 -4.88 5.88 l0 10 l-5.28 0 l0 -20.24 l5.28 0 l0 2.56 c1.4 -1.8 3.6 -3.12 6.52 -3.12 z M133.57999999999998 40.56 c-6.48 0 -11 -4.28 -11 -10.68 c0 -6.04 4.24 -10.68 10.6 -10.68 c6.64 0 10.44 4.6 10.44 10.4 c0 0.64 0 1.24 -0.12 1.88 l-15.72 0 c0.36 2.6 2.2 4.6 5.88 4.6 c2.56 0 4.12 -1.16 4.92 -2.68 l4.76 1.4 c-1.16 2.64 -4.44 5.76 -9.76 5.76 z M127.78 28.16 l10.68 0 c-0.24 -2.48 -2.16 -4.48 -5.32 -4.48 c-3.08 0 -5.08 2.16 -5.36 4.48 z M178.04 12 l0 4.96 l-9.4 0 l0 23.04 l-5.48 0 l0 -23.04 l-9.4 0 l0 -4.96 l24.28 0 z M185.67 22.76 c1.2 -2.36 3.52 -3.72 6.68 -3.28 l0 4.96 c-4.32 -0.68 -6.68 1.32 -6.68 6.76 l0 8.8 l-5.28 0 l0 -20.24 l5.28 0 l0 3 z M203.7 40.56 c-5.6 0 -10 -4.56 -10 -10.68 c0 -6.16 4.4 -10.68 10 -10.68 c2.84 0 5.08 1.16 6.52 3 l0 -2.44 l5.32 0 l0 20.24 l-5.32 0 l0 -2.48 c-1.44 1.84 -3.68 3.04 -6.52 3.04 z M204.62 35.84 c3.2 0 5.76 -2.48 5.76 -6 c0 -3.48 -2.56 -5.92 -5.76 -5.92 c-3.32 0 -5.68 2.44 -5.68 5.92 c0 3.52 2.36 6 5.68 6 z M234.37 19.76 l5.76 0 l-8.36 20.24 l-5.96 0 l-8.36 -20.24 l5.8 0 l5.56 14.4 z M251.8 40.56 c-6.48 0 -11 -4.28 -11 -10.68 c0 -6.04 4.24 -10.68 10.6 -10.68 c6.64 0 10.44 4.6 10.44 10.4 c0 0.64 0 1.24 -0.12 1.88 l-15.72 0 c0.36 2.6 2.2 4.6 5.88 4.6 c2.56 0 4.12 -1.16 4.92 -2.68 l4.76 1.4 c-1.16 2.64 -4.44 5.76 -9.76 5.76 z M246 28.16 l10.68 0 c-0.24 -2.48 -2.16 -4.48 -5.32 -4.48 c-3.08 0 -5.08 2.16 -5.36 4.48 z M264.99 40 l0 -29.2 l5.28 0 l0 29.2 l-5.28 0 z"/>
  </g>
  <g id="SvgjsG10845" featurekey="sloganFeature-0" transform="matrix(0.9650293881909393,0,0,0.9650293881909393,102.92279818273249,37.808141781093894)" fill="#2e2c29">
    <path d="M10.4 6 l3.08 0 l-5.3 8.86 l0 5.14 l-2.78 0 l0 -5.14 l-5.32 -8.86 l3.1 0 l3.62 6.22 z M19.235 20.28 c-3.12 0 -5.42 -2.32 -5.42 -5.34 c0 -3.04 2.3 -5.34 5.42 -5.34 s5.4 2.3 5.4 5.34 c0 3.02 -2.28 5.34 -5.4 5.34 z M19.235 17.88 c1.68 0 2.84 -1.26 2.84 -2.94 s-1.16 -2.94 -2.84 -2.94 c-1.7 0 -2.84 1.26 -2.84 2.94 s1.14 2.94 2.84 2.94 z M33.35 9.88 l2.64 0 l0 10.12 l-2.64 0 l0 -1.28 c-0.68 0.9 -1.78 1.56 -3.24 1.56 c-2.66 0 -4 -1.78 -4 -4.5 l0 -5.9 l2.64 0 l0 5.4 c0 1.54 0.7 2.54 2.16 2.54 c1.5 0 2.44 -1.16 2.44 -2.96 l0 -4.98 z M40.805 11.38 c0.6 -1.18 1.76 -1.86 3.34 -1.64 l0 2.48 c-2.16 -0.34 -3.34 0.66 -3.34 3.38 l0 4.4 l-2.64 0 l0 -10.12 l2.64 0 l0 1.5 z M60.114999999999995 8.5 l-7.44 0 l0 3.48 l6.42 0 l0 2.46 l-6.42 0 l0 5.56 l-2.74 0 l0 -14 l10.18 0 l0 2.5 z M64.61 6 l2.34 0 l0 14 l-2.78 0 l0 -10.94 l-3.14 1.46 l-0.66 -2.34 z M85.03999999999999 6 l0 2.48 l-4.7 0 l0 11.52 l-2.74 0 l0 -11.52 l-4.7 0 l0 -2.48 l12.14 0 z M88.85499999999999 11.38 c0.6 -1.18 1.76 -1.86 3.34 -1.64 l0 2.48 c-2.16 -0.34 -3.34 0.66 -3.34 3.38 l0 4.4 l-2.64 0 l0 -10.12 l2.64 0 l0 1.5 z M97.87 20.28 c-2.8 0 -5 -2.28 -5 -5.34 c0 -3.08 2.2 -5.34 5 -5.34 c1.42 0 2.54 0.58 3.26 1.5 l0 -1.22 l2.66 0 l0 10.12 l-2.66 0 l0 -1.24 c-0.72 0.92 -1.84 1.52 -3.26 1.52 z M98.33 17.92 c1.6 0 2.88 -1.24 2.88 -3 c0 -1.74 -1.28 -2.96 -2.88 -2.96 c-1.66 0 -2.84 1.22 -2.84 2.96 c0 1.76 1.18 3 2.84 3 z M113.20499999999998 9.88 l2.88 0 l-4.18 10.12 l-2.98 0 l-4.18 -10.12 l2.9 0 l2.78 7.2 z M121.91999999999999 20.28 c-3.24 0 -5.5 -2.14 -5.5 -5.34 c0 -3.02 2.12 -5.34 5.3 -5.34 c3.32 0 5.22 2.3 5.22 5.2 c0 0.32 0 0.62 -0.06 0.94 l-7.86 0 c0.18 1.3 1.1 2.3 2.94 2.3 c1.28 0 2.06 -0.58 2.46 -1.34 l2.38 0.7 c-0.58 1.32 -2.22 2.88 -4.88 2.88 z M119.02 14.08 l5.34 0 c-0.12 -1.24 -1.08 -2.24 -2.66 -2.24 c-1.54 0 -2.54 1.08 -2.68 2.24 z M128.515 20 l0 -14.6 l2.64 0 l0 14.6 l-2.64 0 z M144.60500000000002 20.28 c-4.22 0 -7.36 -3.16 -7.36 -7.3 c0 -4.12 3.14 -7.26 7.3 -7.26 c3.78 0 6.14 2.32 6.78 4.54 l-2.68 0.66 c-0.46 -1.36 -1.96 -2.62 -4.08 -2.62 c-2.76 0 -4.52 2.14 -4.52 4.66 s1.76 4.74 4.52 4.74 c2.12 0 3.62 -1.22 4.08 -2.6 l2.66 0.68 c-0.64 2.24 -3 4.5 -6.7 4.5 z M157.7 20.28 c-3.12 0 -5.42 -2.32 -5.42 -5.34 c0 -3.04 2.3 -5.34 5.42 -5.34 s5.4 2.3 5.4 5.34 c0 3.02 -2.28 5.34 -5.4 5.34 z M157.7 17.88 c1.68 0 2.84 -1.26 2.84 -2.94 s-1.16 -2.94 -2.84 -2.94 c-1.7 0 -2.84 1.26 -2.84 2.94 s1.14 2.94 2.84 2.94 z M176.775 9.6 c2.42 0 4 1.56 4 4.38 l0 6.02 l-2.64 0 l0 -5.46 c0 -1.52 -0.56 -2.48 -1.94 -2.48 c-1.42 0 -2.14 1.06 -2.14 2.78 l0 5.16 l-2.66 0 l0 -5.46 c0 -1.5 -0.54 -2.48 -1.9 -2.48 c-1.42 0 -2.18 1.08 -2.18 2.86 l0 5.08 l-2.64 0 l0 -10.12 l2.64 0 l0 1.2 c0.66 -0.86 1.66 -1.48 3 -1.48 c1.42 0 2.42 0.56 3.04 1.52 c0.66 -0.84 1.8 -1.52 3.42 -1.52 z M188.77 9.6 c2.8 0 4.98 2.26 4.98 5.34 c0 3.06 -2.18 5.34 -4.98 5.34 c-1.44 0 -2.54 -0.6 -3.28 -1.52 l0 5.44 l-2.64 0 l0 -14.32 l2.64 0 l0 1.22 c0.74 -0.92 1.84 -1.5 3.28 -1.5 z M188.31 17.92 c1.66 0 2.84 -1.24 2.84 -3 c0 -1.74 -1.18 -2.96 -2.84 -2.96 c-1.6 0 -2.88 1.22 -2.88 2.96 c0 1.76 1.28 3 2.88 3 z M199.705 20.28 c-2.8 0 -5 -2.28 -5 -5.34 c0 -3.08 2.2 -5.34 5 -5.34 c1.42 0 2.54 0.58 3.26 1.5 l0 -1.22 l2.66 0 l0 10.12 l-2.66 0 l0 -1.24 c-0.72 0.92 -1.84 1.52 -3.26 1.52 z M200.165 17.92 c1.6 0 2.88 -1.24 2.88 -3 c0 -1.74 -1.28 -2.96 -2.88 -2.96 c-1.66 0 -2.84 1.22 -2.84 2.96 c0 1.76 1.18 3 2.84 3 z M213.7 9.6 c2.64 0 3.98 1.78 3.98 4.48 l0 5.92 l-2.64 0 l0 -5.42 c0 -1.54 -0.7 -2.52 -2.16 -2.52 c-1.48 0 -2.44 1.16 -2.44 2.94 l0 5 l-2.64 0 l0 -10.12 l2.64 0 l0 1.28 c0.7 -0.9 1.8 -1.56 3.26 -1.56 z M221.095 8.46 c-0.88 0 -1.58 -0.68 -1.58 -1.56 c0 -0.84 0.7 -1.52 1.58 -1.52 s1.58 0.68 1.58 1.52 c0 0.88 -0.7 1.56 -1.58 1.56 z M219.735 20 l0 -10.12 l2.66 0 l0 10.12 l-2.66 0 z M229.41 20.28 c-3.12 0 -5.42 -2.32 -5.42 -5.34 c0 -3.04 2.3 -5.34 5.42 -5.34 s5.4 2.3 5.4 5.34 c0 3.02 -2.28 5.34 -5.4 5.34 z M229.41 17.88 c1.68 0 2.84 -1.26 2.84 -2.94 s-1.16 -2.94 -2.84 -2.94 c-1.7 0 -2.84 1.26 -2.84 2.94 s1.14 2.94 2.84 2.94 z M242.285 9.6 c2.64 0 3.98 1.78 3.98 4.48 l0 5.92 l-2.64 0 l0 -5.42 c0 -1.54 -0.7 -2.52 -2.16 -2.52 c-1.48 0 -2.44 1.16 -2.44 2.94 l0 5 l-2.64 0 l0 -10.12 l2.64 0 l0 1.28 c0.7 -0.9 1.8 -1.56 3.26 -1.56 z"/>
  </g>
</svg>
