<svg xmlns="http://www.w3.org/2000/svg" viewBox="1.7250028848648071 21.239999771118164 96.54899597167969 56.73200225830078"><g xmlns="http://www.w3.org/2000/svg"><path fill="{{COLOR}}" d="M84.848,35.827c-0.645,1.94-1.29,3.881-1.935,5.821c2.049,0.317,4.046,0.792,5.938,1.585   c0.645-1.94,1.29-3.881,1.935-5.821C88.894,36.62,86.898,36.144,84.848,35.827z"/><path fill="{{COLOR}}" d="M76.66,41.014c0.645-1.94,1.29-3.881,1.935-5.821c-2.102-0.159-4.204-0.318-6.253-0.635   c-0.645,1.94-1.29,3.881-1.935,5.821C72.456,40.696,74.558,40.855,76.66,41.014z"/><path fill="{{COLOR}}" d="M70.406,40.379c-2.049-0.317-4.046-0.792-5.938-1.585c-0.645,1.94-1.29,3.881-1.935,5.821   c1.892,0.792,3.888,1.267,5.938,1.585C69.116,44.26,69.761,42.32,70.406,40.379z"/><path fill="{{COLOR}}" d="M74.725,46.835c2.102,0.159,4.204,0.318,6.253,0.635c0.645-1.94,1.29-3.881,1.935-5.821   c-2.049-0.317-4.151-0.476-6.253-0.635C76.015,42.954,75.37,44.894,74.725,46.835z"/><path fill="{{COLOR}}" d="M79.043,53.291c2.049,0.317,4.046,0.793,5.938,1.585c0.645-1.94,1.29-3.881,1.935-5.821   c-1.892-0.792-3.888-1.267-5.938-1.585C80.333,49.41,79.688,51.35,79.043,53.291z"/><path fill="{{COLOR}}" d="M68.471,46.2c-0.645,1.94-1.29,3.881-1.935,5.821c2.049,0.317,4.151,0.476,6.253,0.635   c0.645-1.94,1.29-3.881,1.935-5.821C72.623,46.676,70.521,46.517,68.471,46.2z"/><path fill="{{COLOR}}" d="M98.178,34.92c-1.895-1.843-4.123-3.173-6.812-4.067c-3.426-1.139-7.185-1.423-10.819-1.697   c-3.609-0.273-7.34-0.555-10.716-1.676c-2.522-0.838-4.626-2.07-6.425-3.757l0.644-1.936l-1.643-0.546L50,58.563L37.594,21.24   l-1.643,0.546l0.644,1.936c-1.799,1.688-3.904,2.919-6.425,3.757c-3.375,1.122-7.107,1.404-10.716,1.676   c-3.635,0.274-7.394,0.558-10.82,1.697c-2.689,0.894-4.917,2.224-6.812,4.067l-0.097,0.095l9.826,29.562l0.247-0.241   c1.847-1.797,4.021-3.094,6.647-3.967c3.375-1.122,7.107-1.404,10.715-1.676c3.635-0.274,7.394-0.558,10.819-1.697   c2.514-0.836,4.626-2.054,6.439-3.715l2.668,8.026L43.73,77.426l1.643,0.546L50,64.051l4.627,13.921l1.643-0.546l-5.358-16.119   l2.668-8.026c1.813,1.662,3.925,2.879,6.439,3.715c3.426,1.139,7.184,1.423,10.819,1.697c3.609,0.273,7.34,0.554,10.716,1.676   c2.626,0.873,4.8,2.17,6.647,3.967l0.247,0.241l9.826-29.562L98.178,34.92z M41.267,56.052c-0.622-1.872-1.244-3.743-1.866-5.615   c-1.892,0.792-3.888,1.267-5.938,1.585c0.622,1.87,1.243,3.74,1.865,5.611c-2.047,0.315-4.143,0.474-6.2,0.629   c-0.018,0.001-0.036,0.003-0.054,0.004c-0.622-1.87-1.243-3.74-1.865-5.61c-2.102,0.159-4.204,0.318-6.253,0.635   c0.622,1.872,1.244,3.744,1.867,5.615c-1.541,0.24-3.058,0.569-4.514,1.053c-0.49,0.163-0.964,0.34-1.424,0.532   c-0.622-1.872-1.244-3.744-1.867-5.616c-1.825,0.764-3.55,1.827-5.132,3.323l-1.935-5.821c1.582-1.496,3.307-2.559,5.132-3.323   c-0.645-1.94-1.29-3.881-1.935-5.821c-1.825,0.764-3.55,1.827-5.132,3.323l-1.935-5.821c1.582-1.496,3.307-2.559,5.132-3.323   c-0.622-1.872-1.244-3.743-1.866-5.615c0.459-0.193,0.933-0.371,1.423-0.534c1.452-0.483,2.97-0.809,4.516-1.047   c0.622,1.87,1.243,3.74,1.865,5.611c2.049-0.317,4.151-0.476,6.253-0.635c-0.622-1.87-1.243-3.74-1.865-5.61   c2.073-0.157,4.184-0.318,6.252-0.64c0.622,1.872,1.244,3.744,1.867,5.615c2.049-0.317,4.046-0.792,5.938-1.585   c-0.622-1.872-1.244-3.744-1.867-5.616c1.902-0.795,3.555-1.846,5.015-3.184l1.859,5.592c-1.548,1.435-3.23,2.464-5.007,3.208   c0.645,1.94,1.29,3.881,1.935,5.821c1.777-0.744,3.46-1.773,5.007-3.208l1.935,5.821c-1.548,1.435-3.23,2.464-5.007,3.208   c0.645,1.94,1.29,3.881,1.935,5.821c1.777-0.744,3.46-1.773,5.007-3.208l1.861,5.599C44.82,54.188,43.172,55.252,41.267,56.052z    M93.983,46.556c-1.582-1.496-3.307-2.559-5.132-3.323c-0.645,1.94-1.29,3.881-1.935,5.821c1.825,0.764,3.55,1.827,5.132,3.323   l-1.935,5.821c-1.582-1.496-3.307-2.559-5.132-3.323c-0.622,1.872-1.244,3.744-1.867,5.616c-0.46-0.192-0.934-0.37-1.424-0.532   c-1.456-0.484-2.973-0.813-4.514-1.053c0.622-1.872,1.244-3.744,1.867-5.615c-2.049-0.317-4.151-0.476-6.253-0.635   c-0.622,1.87-1.243,3.74-1.865,5.61c-0.018-0.001-0.036-0.003-0.054-0.004c-2.056-0.155-4.152-0.314-6.2-0.629   c0.622-1.87,1.243-3.74,1.865-5.611c-2.049-0.317-4.046-0.792-5.938-1.585c-0.622,1.872-1.244,3.743-1.866,5.615   c-1.905-0.8-3.552-1.864-5.002-3.223l1.861-5.599c1.548,1.435,3.23,2.464,5.007,3.208c0.645-1.94,1.29-3.881,1.935-5.821   c-1.777-0.744-3.46-1.773-5.007-3.208l1.935-5.821c1.548,1.435,3.23,2.464,5.007,3.208c0.645-1.94,1.29-3.881,1.935-5.821   c-1.777-0.744-3.46-1.773-5.007-3.208l1.859-5.592c1.46,1.338,3.113,2.389,5.015,3.184c-0.622,1.872-1.244,3.744-1.867,5.616   c1.892,0.792,3.888,1.267,5.938,1.585c0.622-1.872,1.244-3.744,1.867-5.615c2.067,0.322,4.179,0.484,6.252,0.64   c-0.622,1.87-1.243,3.74-1.865,5.61c2.102,0.159,4.204,0.318,6.253,0.635c0.622-1.87,1.243-3.74,1.865-5.611   c1.546,0.238,3.064,0.564,4.516,1.047c0.49,0.163,0.964,0.341,1.423,0.534c-0.622,1.872-1.244,3.743-1.866,5.615   c1.825,0.764,3.55,1.827,5.132,3.323L93.983,46.556z"/><path fill="{{COLOR}}" d="M15.152,35.827c-2.049,0.317-4.046,0.792-5.938,1.585c0.645,1.94,1.29,3.881,1.935,5.821   c1.892-0.792,3.888-1.267,5.938-1.585C16.442,39.708,15.797,37.768,15.152,35.827z"/><path fill="{{COLOR}}" d="M29.594,40.379c-0.645-1.94-1.29-3.881-1.935-5.821c-2.049,0.317-4.151,0.476-6.253,0.635   c0.645,1.94,1.29,3.881,1.935,5.821C25.442,40.855,27.544,40.696,29.594,40.379z"/><path fill="{{COLOR}}" d="M31.529,46.2c2.049-0.317,4.046-0.792,5.938-1.585c-0.645-1.94-1.29-3.881-1.935-5.821   c-1.892,0.792-3.888,1.267-5.938,1.585C30.239,42.32,30.884,44.26,31.529,46.2z"/><path fill="{{COLOR}}" d="M17.087,41.648c0.645,1.94,1.29,3.881,1.935,5.821c2.049-0.317,4.151-0.476,6.253-0.635   c-0.645-1.94-1.29-3.881-1.935-5.821C21.238,41.172,19.136,41.331,17.087,41.648z"/><path fill="{{COLOR}}" d="M13.084,49.054c0.645,1.94,1.29,3.881,1.935,5.821c1.892-0.792,3.888-1.267,5.938-1.585   c-0.645-1.94-1.29-3.881-1.935-5.821C16.972,47.787,14.976,48.262,13.084,49.054z"/><path fill="{{COLOR}}" d="M25.275,46.835c0.645,1.94,1.29,3.881,1.935,5.821c2.102-0.159,4.204-0.317,6.253-0.635   c-0.645-1.94-1.29-3.881-1.935-5.821C29.479,46.517,27.377,46.676,25.275,46.835z"/></g></svg>